<svg width="88" height="88" viewBox="0 0 88 88" fill="none" xmlns="http://www.w3.org/2000/svg">
<path d="M5.97809 68.3552C6.31647 68.3552 6.64813 68.2175 6.88849 67.9772C7.12952 67.7361 7.26715 67.4045 7.26715 67.0661C7.26715 66.7257 7.12952 66.394 6.88849 66.153C6.64813 65.9147 6.31647 65.777 5.97809 65.777C5.6377 65.777 5.30603 65.9147 5.065 66.153C4.82599 66.394 4.68701 66.7257 4.68701 67.0661C4.68701 67.4045 4.82599 67.7361 5.065 67.9772C5.30603 68.2175 5.6377 68.3552 5.97809 68.3552Z" fill="url(#paint0_linear_1_6328)"/>
<path d="M85.8516 35.8366H78.1944C77.0101 35.8366 76.046 36.8 76.046 37.985V38.5974H72.3325C71.1475 38.5974 70.1841 39.5608 70.1841 40.7458V43.4065H49.98C48.8635 43.4065 47.8141 43.8429 47.0246 44.6345L46.4788 45.1816L46.3418 45.0447C45.4099 44.1101 43.7583 43.4038 42.4968 43.4018H17.8152V40.7451C17.8152 39.5608 16.8518 38.5967 15.6668 38.5967H11.954V37.9844C11.954 36.8 10.9899 35.8359 9.8056 35.8359H2.14844C0.96344 35.8359 0 36.8 0 37.9844V71.0918C0 72.2761 0.96344 73.2402 2.14844 73.2402H9.8056C10.9899 73.2402 11.954 72.2768 11.954 71.0918V70.4795H15.6675C16.8518 70.4795 17.8159 69.5154 17.8159 68.3311V67.2904L19.3655 68.3989C19.2648 69.6618 19.683 70.9454 20.629 71.8948C21.4548 72.7226 22.564 73.1791 23.753 73.1791C23.7839 73.1791 23.8148 73.1771 23.8456 73.1765C23.8208 74.3507 24.2444 75.5216 25.124 76.4031C25.9491 77.2316 27.0582 77.6875 28.2473 77.6875C28.2781 77.6875 28.309 77.6855 28.3406 77.6855C28.3151 78.8591 28.7394 80.0306 29.6176 80.9122C30.4434 81.74 31.5525 82.1959 32.7415 82.1959C32.7724 82.1959 32.8033 82.1945 32.8342 82.1939C32.8093 83.3681 33.2336 84.539 34.1125 85.4205C34.9376 86.2484 36.0468 86.7049 37.2358 86.7049C38.4718 86.7049 39.638 86.2175 40.5189 85.3339L40.823 85.0285C41.5387 85.4487 42.3564 85.6737 43.2104 85.6737C44.4753 85.6737 45.661 85.1822 46.5499 84.2906L46.9407 83.8992C47.5436 83.2936 47.9478 82.5638 48.1552 81.7917C48.8306 82.1536 49.5906 82.3456 50.3809 82.3456C51.6451 82.3456 52.8314 81.8541 53.7203 80.9625L54.1111 80.5704C54.6891 79.991 55.0846 79.2968 55.2994 78.5603C56.046 79.0343 56.9135 79.2888 57.8225 79.2888C59.0867 79.2888 60.2731 78.798 61.162 77.9057L61.5521 77.5143C62.2094 76.855 62.6303 76.0487 62.8176 75.1993C63.3661 75.4175 63.9563 75.5324 64.5652 75.5324C65.8301 75.5324 67.0158 75.0409 67.9054 74.1493L68.2955 73.7579C69.9108 72.1378 70.1069 69.6248 68.8836 67.7879L70.1841 67.0541V68.3311C70.1841 69.5161 71.1475 70.4795 72.3325 70.4795H76.046V71.0925C76.046 72.2768 77.0101 73.2409 78.1944 73.2409H85.8516C87.0366 73.2409 88 72.2768 88 71.0925V37.985C88 36.8 87.0366 35.8366 85.8516 35.8366ZM9.37592 70.6621H2.57812V38.4147H9.37592V70.6621ZM23.753 70.601C23.2542 70.601 22.7936 70.4137 22.4552 70.0747C21.716 69.3334 21.7549 68.0887 22.5418 67.2991L23.1125 66.7264C23.5066 66.3317 24.0242 66.1135 24.5701 66.1135C25.0689 66.1135 25.5295 66.3008 25.8679 66.6398C26.6071 67.381 26.5681 68.6258 25.7812 69.4147L25.2099 69.988C24.8165 70.3835 24.2988 70.601 23.753 70.601ZM28.2473 75.1094C27.7484 75.1094 27.2878 74.9227 26.9495 74.583C26.2103 73.8425 26.2492 72.5971 27.0361 71.8082L27.6074 71.2348C28.0009 70.84 28.5192 70.6225 29.065 70.6225C29.5638 70.6225 30.0244 70.8092 30.3621 71.1475C31.1006 71.8894 31.0624 73.1342 30.2755 73.9237L29.7042 74.4964C29.3107 74.8919 28.7931 75.1094 28.2473 75.1094ZM32.7415 79.6177C32.2427 79.6177 31.7814 79.4311 31.4437 79.092C30.7052 78.3508 30.7435 77.1061 31.5297 76.3172C31.5297 76.3165 31.5303 76.3165 31.5303 76.3165L32.1017 75.7432C32.1017 75.7432 32.1017 75.7432 32.1024 75.7425C32.4958 75.3477 33.0134 75.1302 33.5586 75.1302C34.0574 75.1302 34.5187 75.3175 34.8564 75.6566C35.5956 76.3978 35.5566 77.6425 34.7698 78.4321L34.1984 79.0048C33.805 79.4002 33.2874 79.6177 32.7415 79.6177ZM38.6927 83.5138C38.2993 83.9086 37.7816 84.1268 37.2358 84.1268C36.7369 84.1268 36.2764 83.9401 35.938 83.6004C35.1995 82.8592 35.2384 81.6144 36.0246 80.8256L36.5959 80.2522C36.9901 79.8568 37.5077 79.6392 38.0535 79.6392C38.5524 79.6392 39.0129 79.8259 39.3513 80.1656C40.0898 80.9068 40.0509 82.1516 39.2647 82.9404L38.6927 83.5138ZM66.47 71.9371L66.0792 72.3292C65.6777 72.732 65.14 72.9542 64.5652 72.9542C63.9912 72.9542 63.4534 72.732 63.0519 72.3292L52.9785 62.2208C52.4756 61.7166 51.6592 61.7152 51.155 62.2181C50.6508 62.7203 50.6494 63.5367 51.1523 64.0409L59.7266 72.6447C60.5645 73.486 60.5645 74.8536 59.7266 75.6942L59.3358 76.0856C58.9343 76.4891 58.3965 76.7106 57.8225 76.7106C57.2478 76.7106 56.71 76.4891 56.3085 76.0856L46.4002 66.1464C45.898 65.6422 45.0816 65.6408 44.5774 66.1437C44.0732 66.6459 44.0718 67.4623 44.5747 67.9665L52.2419 75.6586L52.2849 75.7015C53.1228 76.5421 53.1228 77.9097 52.2849 78.7503L51.8948 79.1417C51.4927 79.5452 50.9549 79.7668 50.3809 79.7668C49.8062 79.7668 49.2684 79.5452 48.8669 79.1417L38.067 68.3076C37.5641 67.8034 36.7484 67.802 36.2435 68.3042C35.7393 68.8071 35.7386 69.6228 36.2408 70.127L45.1145 79.0296C45.9524 79.8702 45.9524 81.2378 45.1145 82.0784L44.7244 82.4698C44.3223 82.8733 43.7845 83.0949 43.2104 83.0949C42.8667 83.0949 42.537 83.0143 42.241 82.8639C42.7324 81.3056 42.3813 79.5533 41.1768 78.3448C40.3517 77.517 39.2419 77.0611 38.0535 77.0611C38.022 77.0611 37.9911 77.0624 37.9602 77.0631C37.9857 75.8889 37.5614 74.718 36.6826 73.8364C35.8568 73.0079 34.7476 72.5521 33.5586 72.5521C33.5277 72.5521 33.4968 72.5541 33.4659 72.5541C33.4908 71.3805 33.0671 70.2089 32.1883 69.3274C31.3632 68.4996 30.2534 68.0437 29.065 68.0437C29.0334 68.0437 29.0026 68.045 28.9717 68.0457C28.9972 66.8715 28.5729 65.7006 27.694 64.819C26.8682 63.9912 25.7591 63.5347 24.5701 63.5347C23.334 63.5347 22.1685 64.0214 21.287 64.9063L20.7156 65.479C20.576 65.6187 20.4484 65.7664 20.3303 65.9188L17.8159 64.1201V61.0552C17.8159 60.3436 17.2385 59.7662 16.5269 59.7662C15.8145 59.7662 15.2378 60.3436 15.2378 61.0552V67.9014H11.954V41.1755H15.2378V54.8677C15.2378 55.5801 15.8145 56.1568 16.5269 56.1568C17.2385 56.1568 17.8159 55.5801 17.8159 54.8677V45.9806H42.4954C43.0708 45.9813 44.0718 46.419 44.5163 46.8648L44.6586 47.0078L35.5137 56.1816C34.5543 57.1444 34.0118 58.4187 33.9856 59.7702C33.9601 61.1378 34.4677 62.4141 35.4143 63.3641C36.3368 64.2886 37.5768 64.7982 38.9055 64.7982C40.2906 64.7982 41.5971 64.2524 42.584 63.2614L45.712 60.124C46.9091 60.8129 48.2794 61.1841 49.6705 61.1841C51.7894 61.1841 53.7814 60.357 55.2786 58.8544L55.8735 58.2576L66.47 68.8883C67.3079 69.7289 67.3079 71.0965 66.47 71.9371ZM72.7622 67.9014V56.0709C72.7622 55.3592 72.1848 54.7818 71.4731 54.7818C70.7615 54.7818 70.1841 55.3592 70.1841 56.0709V64.0939L67.0776 65.8463L57.6936 56.4321L59.0914 55.0302C59.5936 54.526 59.5923 53.7096 59.0881 53.2074C58.5839 52.7045 57.7675 52.7059 57.2653 53.2101L53.4525 57.035C52.4427 58.0481 51.0992 58.6067 49.6705 58.6067C48.4688 58.6067 47.2905 58.1965 46.3525 57.4512C45.8389 57.043 45.1011 57.086 44.6378 57.5499L40.7585 61.442C40.2584 61.9435 39.6004 62.2201 38.9055 62.2201C38.2664 62.2201 37.6749 61.9797 37.2398 61.544C36.7913 61.0935 36.551 60.4805 36.563 59.8185C36.5765 59.1364 36.8524 58.4905 37.3398 58.0011L48.8508 46.4546C49.1522 46.1518 49.5537 45.9846 49.98 45.9846H70.1841V49.8834C70.1841 50.5957 70.7608 51.1724 71.4731 51.1724C72.1848 51.1724 72.7622 50.5957 72.7622 49.8834V41.1755H76.046V67.9014H72.7622ZM85.4219 70.6621H78.6241V38.4147H85.4219V70.6621Z" fill="#2B7AF1"/>
<path d="M82.024 68.3552C82.3624 68.3552 82.694 68.2175 82.9351 67.9772C83.1741 67.7361 83.311 67.4045 83.311 67.0661C83.311 66.7257 83.1741 66.394 82.9351 66.153C82.694 65.9147 82.3624 65.777 82.024 65.777C81.6836 65.777 81.3519 65.9147 81.1116 66.153C80.8705 66.394 80.7329 66.7257 80.7329 67.0661C80.7329 67.4045 80.8705 67.7361 81.1116 67.9772C81.3519 68.2175 81.6836 68.3552 82.024 68.3552Z" fill="url(#paint1_linear_1_6328)"/>
<path d="M43.9999 41.4265C46.6579 41.4265 49.2635 40.7095 51.5355 39.3539C52.1465 38.9887 52.3466 38.1978 51.982 37.5862C51.6168 36.9752 50.8259 36.7751 50.2142 37.1397C48.3417 38.2576 46.1926 38.8484 43.9999 38.8484C37.2853 38.8484 31.8223 33.3665 31.8223 26.6278C31.8223 19.8898 37.2853 14.4072 43.9999 14.4072C50.7144 14.4072 56.1775 19.8898 56.1775 26.6278C56.1775 28.8407 55.582 31.0079 54.4567 32.8952C54.0915 33.5062 54.2916 34.2977 54.9032 34.6623C55.5148 35.0269 56.3057 34.8275 56.6703 34.2158C58.0345 31.9291 58.7556 29.3053 58.7556 26.6278C58.7556 18.4678 52.1364 11.8291 43.9999 11.8291C35.8633 11.8291 29.2441 18.4678 29.2441 26.6278C29.2441 34.7878 35.8633 41.4265 43.9999 41.4265Z" fill="#2B7AF1"/>
<path d="M39.5552 24.6788V23.2884C39.5552 22.5767 38.9785 21.9993 38.2661 21.9993C37.5544 21.9993 36.9771 22.5767 36.9771 23.2884V24.6788C36.9771 25.3912 37.5544 25.9679 38.2661 25.9679C38.9785 25.9679 39.5552 25.3912 39.5552 24.6788Z" fill="url(#paint2_linear_1_6328)"/>
<path d="M51.0229 24.6788V23.2884C51.0229 22.5767 50.4462 21.9993 49.7339 21.9993C49.0222 21.9993 48.4448 22.5767 48.4448 23.2884V24.6788C48.4448 25.3912 49.0222 25.9679 49.7339 25.9679C50.4462 25.9679 51.0229 25.3912 51.0229 24.6788Z" fill="url(#paint3_linear_1_6328)"/>
<path d="M44.0001 34.3185C47.075 34.3185 49.5773 32.0217 49.5773 29.1985C49.5773 28.4869 48.9999 27.9095 48.2882 27.9095C47.5765 27.9095 46.9991 28.4869 46.9991 29.1985C46.9991 30.5997 45.6537 31.7404 44.0001 31.7404C42.3464 31.7404 41.001 30.5997 41.001 29.1985C41.001 28.4869 40.4236 27.9095 39.7119 27.9095C38.9996 27.9095 38.4229 28.4869 38.4229 29.1985C38.4229 32.0217 40.9244 34.3185 44.0001 34.3185Z" fill="url(#paint4_linear_1_6328)"/>
<path d="M65.4688 19.0197C70.3209 19.0197 74.2673 15.0626 74.2673 10.1977C74.2673 8.88379 73.9779 7.6377 73.4616 6.51648L74.5654 5.40936C75.0682 4.90515 75.0669 4.08875 74.5627 3.58588C74.0585 3.08368 73.2421 3.08502 72.7399 3.58923L72.0181 4.31299C70.4061 2.51099 68.0677 1.375 65.4694 1.375C60.618 1.375 56.6709 5.33282 56.6709 10.197C56.6709 15.0619 60.6173 19.0197 65.4688 19.0197ZM65.4688 3.95312C67.358 3.95312 69.0519 4.80444 70.194 6.14319L65.4688 10.8832L62.7235 8.12848C62.2213 7.62427 61.4048 7.6236 60.9006 8.12579C60.3964 8.62799 60.3951 9.4444 60.8973 9.94861L64.1918 13.2538C64.5328 13.5956 64.986 13.7836 65.4688 13.7836C65.9522 13.7836 66.4053 13.5956 66.7457 13.2538L71.4602 8.52393C71.6086 9.05701 71.6892 9.61829 71.6892 10.1977C71.6892 13.6406 68.8989 16.4416 65.4688 16.4416C62.0386 16.4416 59.2484 13.6406 59.2484 10.1977C59.249 6.75482 62.0393 3.95312 65.4688 3.95312Z" fill="#2B7AF1"/>
<path d="M14.0493 18.8599L13.5941 21.5153C13.4457 22.3793 13.7941 23.236 14.5031 23.7516C14.8966 24.037 15.3612 24.188 15.8472 24.188C16.2165 24.188 16.5844 24.0974 16.9114 23.9255L19.2962 22.6721L21.6803 23.9255C22.0072 24.0974 22.3751 24.188 22.7444 24.188C23.2298 24.188 23.6951 24.0377 24.0885 23.7516C24.7975 23.236 25.146 22.3793 24.9982 21.5153L24.543 18.8606L26.4719 16.98C27.0997 16.3684 27.3212 15.4701 27.05 14.6356C26.7794 13.8024 26.0718 13.2062 25.2044 13.08L22.5383 12.6926L21.3466 10.2762C20.9585 9.49072 20.1723 9.00195 19.2962 9.00195C18.4193 9.00195 17.6338 9.49072 17.2457 10.2769L16.0534 12.6926L13.3873 13.08C12.5199 13.2062 11.8129 13.8024 11.5416 14.6362C11.2711 15.4701 11.4926 16.3684 12.1204 16.98L14.0493 18.8599ZM17.0947 15.1465C17.5143 15.0854 17.8775 14.8215 18.0648 14.4409L19.2955 11.9473L20.5261 14.4409C20.7141 14.8215 21.0773 15.0854 21.497 15.1465L24.249 15.546L22.2576 17.4869C21.9535 17.783 21.8152 18.21 21.887 18.6283L22.357 21.3689L19.8957 20.0745C19.7077 19.9758 19.5016 19.9268 19.2955 19.9268C19.09 19.9268 18.8839 19.9758 18.6959 20.0745L16.2346 21.3689L16.7046 18.6283C16.7764 18.21 16.6381 17.783 16.334 17.4869L14.3427 15.546L17.0947 15.1465Z" fill="url(#paint5_linear_1_6328)"/>
<defs>
<linearGradient id="paint0_linear_1_6328" x1="4.68701" y1="67.0661" x2="7.26763" y2="67.0557" gradientUnits="userSpaceOnUse">
<stop stop-color="#FF7A00"/>
<stop offset="1" stop-color="#FFB039"/>
</linearGradient>
<linearGradient id="paint1_linear_1_6328" x1="80.7329" y1="67.0661" x2="83.3115" y2="67.0557" gradientUnits="userSpaceOnUse">
<stop stop-color="#FF7A00"/>
<stop offset="1" stop-color="#FFB039"/>
</linearGradient>
<linearGradient id="paint2_linear_1_6328" x1="36.9771" y1="23.9836" x2="39.5557" y2="23.9769" gradientUnits="userSpaceOnUse">
<stop stop-color="#FF7A00"/>
<stop offset="1" stop-color="#FFB039"/>
</linearGradient>
<linearGradient id="paint3_linear_1_6328" x1="48.4448" y1="23.9836" x2="51.0235" y2="23.9769" gradientUnits="userSpaceOnUse">
<stop stop-color="#FF7A00"/>
<stop offset="1" stop-color="#FFB039"/>
</linearGradient>
<linearGradient id="paint4_linear_1_6328" x1="38.4229" y1="31.114" x2="49.579" y2="31.0357" gradientUnits="userSpaceOnUse">
<stop stop-color="#FF7A00"/>
<stop offset="1" stop-color="#FFB039"/>
</linearGradient>
<linearGradient id="paint5_linear_1_6328" x1="11.4282" y1="16.595" x2="27.1667" y2="16.5292" gradientUnits="userSpaceOnUse">
<stop stop-color="#FF7A00"/>
<stop offset="1" stop-color="#FFB039"/>
</linearGradient>
</defs>
</svg>
