<svg width="40" height="41" viewBox="0 0 40 41" fill="none" xmlns="http://www.w3.org/2000/svg">
<circle cx="20" cy="20.3545" r="20" fill="#2B7AF1"/>
<path d="M26.5808 12.3545H14.4192C13.0462 12.3545 12 13.4006 12 14.7737V26.9353C12 28.3083 13.0462 29.3545 14.4192 29.3545H26.5808C27.9538 29.3545 29 28.3083 29 26.9353V14.7737C29 13.4006 27.9538 12.3545 26.5808 12.3545ZM20.5 25.9545C23.3115 25.9545 25.6 23.7314 25.6 21.0506C25.6 20.593 25.5346 20.0699 25.4038 19.6776H26.8423V26.6083C26.8423 26.9353 26.5808 27.2622 26.1885 27.2622H14.8115C14.4846 27.2622 14.1577 27.0006 14.1577 26.6083V19.6122H15.6615C15.5308 20.0699 15.4654 20.5276 15.4654 20.9853C15.4 23.7314 17.6885 25.9545 20.5 25.9545ZM20.5 23.993C18.6692 23.993 17.2308 22.5545 17.2308 20.7891C17.2308 19.0237 18.6692 17.5853 20.5 17.5853C22.3308 17.5853 23.7692 19.0237 23.7692 20.7891C23.7692 22.6199 22.3308 23.993 20.5 23.993ZM26.7769 16.9968C26.7769 17.3891 26.45 17.716 26.0577 17.716H24.2269C23.8346 17.716 23.5077 17.3891 23.5077 16.9968V15.2314C23.5077 14.8391 23.8346 14.5122 24.2269 14.5122H26.0577C26.45 14.5122 26.7769 14.8391 26.7769 15.2314V16.9968Z" fill="white"/>
</svg>
