<svg width="22" height="22" viewBox="0 0 22 22" fill="none" xmlns="http://www.w3.org/2000/svg">
<path d="M11 1.375C8.99503 1.37737 7.07286 2.17489 5.65513 3.59262C4.23739 5.01035 3.43987 6.93253 3.43751 8.9375C3.43511 10.576 3.97031 12.17 4.96101 13.475C4.96101 13.475 5.16726 13.7466 5.20095 13.7858L11 20.625L16.8018 13.7823C16.8321 13.7459 17.039 13.475 17.039 13.475L17.0397 13.4729C18.0299 12.1685 18.5649 10.5752 18.5625 8.9375C18.5601 6.93253 17.7626 5.01035 16.3449 3.59262C14.9272 2.17489 13.005 1.37737 11 1.375ZM13.475 12.375L11 10.7999L8.52501 12.375L8.93751 9.57412L6.87501 7.68144L9.76251 7.33288L11 4.8125L12.3145 7.33356L15.125 7.68144L13.0625 9.57412L13.475 12.375Z" fill="#F73E3E"/>
</svg>
