<svg width="80" height="80" viewBox="0 0 80 80" fill="none" xmlns="http://www.w3.org/2000/svg">
<path d="M56.0517 26.2639C53.7181 26.2639 51.4349 26.5961 49.2337 27.2501C49.3209 26.4086 49.3659 25.5547 49.3659 24.6904C49.3659 20.7359 48.4582 16.9573 46.6685 13.4599C46.2751 12.6918 45.3338 12.3879 44.566 12.7809C43.798 13.1742 43.494 14.1153 43.887 14.8834C45.4492 17.9357 46.2412 21.2353 46.2412 24.6903C46.2412 36.5778 36.5701 46.2488 24.6827 46.2488C21.9114 46.2488 19.2124 45.7299 16.661 44.7059C16.0805 44.4736 15.4169 44.6091 14.9746 45.0513L11.5603 48.4658V42.5494C11.5603 42.0825 11.3514 41.64 10.991 41.3431C5.99173 37.2276 3.12438 31.1579 3.12438 24.6903C3.12438 12.8028 12.7955 3.1318 24.6829 3.1318C27.5521 3.1318 30.3377 3.68586 32.9626 4.77868C33.8094 5.13118 34.6427 5.5429 35.4391 6.00243C36.1863 6.43337 37.1416 6.17727 37.5729 5.42993C38.004 4.68274 37.7477 3.72727 37.0004 3.29618C36.0882 2.77008 35.1337 2.2982 34.1635 1.8943C31.1563 0.642264 27.9666 0.00726318 24.683 0.00726318C11.0728 0.00726318 0 11.0801 0 24.6903C0 31.8461 3.06485 38.5761 8.43595 43.2722V52.2372C8.43595 52.8691 8.81674 53.4388 9.40033 53.6805C9.59361 53.7605 9.79658 53.7994 9.99783 53.7994C10.4044 53.7994 10.8039 53.6406 11.1028 53.3419L16.4718 47.973C19.1043 48.9025 21.8613 49.3731 24.683 49.3731C27.2993 49.3731 29.821 48.9625 32.189 48.2049C32.1332 48.8724 32.1035 49.5424 32.1035 50.2119C32.1035 53.8691 32.9068 57.38 34.491 60.6477C34.7612 61.2043 35.3179 61.5286 35.8977 61.5286C36.1265 61.5286 36.3587 61.4783 36.5782 61.3718C37.3544 60.9953 37.6787 60.0608 37.3023 59.2844C35.9257 56.4453 35.2277 53.393 35.2277 50.212C35.2277 49.0947 35.3188 47.9758 35.4962 46.875C41.9366 43.723 46.8112 37.8481 48.6099 30.759C50.9817 29.85 53.4809 29.3883 56.0515 29.3883C67.5339 29.3883 76.8755 38.7298 76.8755 50.212C76.8755 56.5907 74.009 62.5313 69.0115 66.5111C68.6392 66.8074 68.4225 67.2572 68.4225 67.7332V74.6591L64.1432 70.3799C63.7264 69.9632 63.1109 69.8165 62.5514 70.0002C60.4578 70.6874 58.2709 71.036 56.0515 71.036C52.8765 71.036 49.8288 70.3404 46.9937 68.9683C46.2174 68.5927 45.2829 68.9174 44.907 69.6941C44.5312 70.4707 44.8562 71.4049 45.6327 71.7808C48.8957 73.3596 52.4012 74.1602 56.0515 74.1602C58.2765 74.1602 60.4742 73.8552 62.5976 73.2524L68.8801 79.5349C69.179 79.8338 69.5786 79.9924 69.9851 79.9924C70.1864 79.9924 70.3895 79.9535 70.5826 79.8735C71.1662 79.6316 71.547 79.0621 71.547 78.4302V68.4708C76.9291 63.9046 79.9998 57.2932 79.9998 50.2119C80.0002 37.007 69.2569 26.2639 56.0517 26.2639Z" fill="#2B7AF1"/>
<path d="M41.5497 65.1562C41.5018 65.1099 41.4543 65.0633 41.4069 65.0163C40.7944 64.409 39.8051 64.4135 39.1977 65.0262C38.5904 65.6388 38.5949 66.628 39.2076 67.2354C39.2627 67.2901 39.318 67.3441 39.3736 67.3982C39.6772 67.6929 40.0696 67.8393 40.4616 67.8393C40.8693 67.8393 41.2766 67.6805 41.5829 67.3652C42.1836 66.746 42.1688 65.7569 41.5497 65.1562Z" fill="url(#paint0_linear_1_6417)"/>
<path d="M42.7964 7.92211C42.1181 7.1982 41.1332 7.30507 40.5729 7.82695C40.0128 8.34836 39.8359 9.3232 40.5095 10.0515C40.5142 10.0565 40.519 10.0616 40.5237 10.0666C40.8609 10.4215 41.2711 10.5735 41.6673 10.5735C42.0742 10.5735 42.4657 10.413 42.7479 10.1471C43.3045 9.62179 43.4748 8.64586 42.7964 7.92211Z" fill="url(#paint1_linear_1_6417)"/>
<path d="M17.8874 19.2995C17.5968 19.0089 17.1952 18.8417 16.7829 18.8417C16.372 18.8417 15.969 19.0089 15.6784 19.2995C15.3879 19.59 15.2207 19.9929 15.2207 20.4039C15.2207 20.8148 15.3879 21.2178 15.6784 21.5084C15.969 21.799 16.372 21.9661 16.7829 21.9661C17.1938 21.9661 17.5968 21.799 17.8874 21.5084C18.1796 21.2178 18.3451 20.8148 18.3451 20.4039C18.3451 19.9929 18.1795 19.5898 17.8874 19.2995Z" fill="url(#paint2_linear_1_6417)"/>
<path d="M33.6877 19.2995C33.3972 19.0089 32.9943 18.8417 32.5832 18.8417C32.1707 18.8417 31.7677 19.0089 31.4772 19.2995C31.1866 19.59 31.021 19.9929 31.021 20.4039C31.021 20.8148 31.1868 21.2178 31.4772 21.5084C31.7693 21.799 32.1722 21.9661 32.5832 21.9661C32.9941 21.9661 33.3955 21.799 33.6877 21.5084C33.9783 21.2178 34.1454 20.8148 34.1454 20.4039C34.1454 19.9929 33.9785 19.5898 33.6877 19.2995Z" fill="url(#paint3_linear_1_6417)"/>
<path d="M30.6645 28.5279C29.8305 28.3046 28.9747 28.8005 28.752 29.634C28.2602 31.4757 26.5869 32.762 24.683 32.762C22.7791 32.762 21.1059 31.4757 20.6139 29.634C20.3912 28.8004 19.5351 28.3044 18.7014 28.5279C17.8678 28.7507 17.3726 29.6068 17.5953 30.4404C18.452 33.647 21.3664 35.8863 24.683 35.8863C27.9994 35.8863 30.9139 33.647 31.7706 30.4404C31.9933 29.6066 31.4981 28.7505 30.6645 28.5279Z" fill="#2B7AF1"/>
<path d="M49.5186 44.9289C49.2282 44.6382 48.8267 44.4712 48.4142 44.4712C48.0033 44.4712 47.6003 44.6382 47.3097 44.9289C47.0191 45.2196 46.8521 45.6224 46.8521 46.0334C46.8521 46.4459 47.0191 46.8473 47.3097 47.1378C47.6003 47.4284 48.0033 47.5956 48.4142 47.5956C48.8267 47.5956 49.2282 47.4284 49.5186 47.1378C49.8108 46.8473 49.9764 46.4443 49.9764 46.0334C49.9764 45.6224 49.8108 45.2195 49.5186 44.9289Z" fill="url(#paint4_linear_1_6417)"/>
<path d="M64.7927 44.929C64.5021 44.6384 64.1005 44.4714 63.6882 44.4714C63.2772 44.4714 62.8743 44.6384 62.5836 44.929C62.2932 45.2197 62.126 45.6226 62.126 46.0336C62.126 46.4461 62.2932 46.8475 62.5836 47.1379C62.8743 47.4286 63.2772 47.5958 63.6882 47.5958C64.1005 47.5956 64.5021 47.4284 64.7927 47.1379C65.0832 46.8475 65.2504 46.4445 65.2504 46.0336C65.2504 45.6226 65.0833 45.2197 64.7927 44.929Z" fill="url(#paint5_linear_1_6417)"/>
<path d="M49.1495 55.7506C49.9834 58.873 52.8219 61.0539 56.0514 61.0539C59.281 61.0539 62.1193 58.8731 62.9535 55.7506C63.1763 54.917 62.681 54.0609 61.8474 53.8381C61.0132 53.6147 60.1577 54.1108 59.9349 54.9442C59.4653 56.7019 57.8682 57.9294 56.0516 57.9294C54.2345 57.9294 52.6375 56.7017 52.1681 54.9442C51.9816 54.2456 51.3502 53.7847 50.6599 53.7847C50.5264 53.7847 50.3906 53.8019 50.2556 53.8381C49.4219 54.0609 48.9267 54.917 49.1495 55.7506Z" fill="#2B7AF1"/>
<defs>
<linearGradient id="paint0_linear_1_6417" x1="38.7451" y1="66.2015" x2="42.0245" y2="66.1883" gradientUnits="userSpaceOnUse">
<stop stop-color="#FF7A00"/>
<stop offset="1" stop-color="#FFB039"/>
</linearGradient>
<linearGradient id="paint1_linear_1_6417" x1="40.0742" y1="8.99043" x2="43.2395" y2="8.97766" gradientUnits="userSpaceOnUse">
<stop stop-color="#FF7A00"/>
<stop offset="1" stop-color="#FFB039"/>
</linearGradient>
<linearGradient id="paint2_linear_1_6417" x1="15.2207" y1="20.4039" x2="18.3457" y2="20.3913" gradientUnits="userSpaceOnUse">
<stop stop-color="#FF7A00"/>
<stop offset="1" stop-color="#FFB039"/>
</linearGradient>
<linearGradient id="paint3_linear_1_6417" x1="31.021" y1="20.4039" x2="34.146" y2="20.3913" gradientUnits="userSpaceOnUse">
<stop stop-color="#FF7A00"/>
<stop offset="1" stop-color="#FFB039"/>
</linearGradient>
<linearGradient id="paint4_linear_1_6417" x1="46.8521" y1="46.0334" x2="49.977" y2="46.0208" gradientUnits="userSpaceOnUse">
<stop stop-color="#FF7A00"/>
<stop offset="1" stop-color="#FFB039"/>
</linearGradient>
<linearGradient id="paint5_linear_1_6417" x1="62.126" y1="46.0336" x2="65.2509" y2="46.021" gradientUnits="userSpaceOnUse">
<stop stop-color="#FF7A00"/>
<stop offset="1" stop-color="#FFB039"/>
</linearGradient>
</defs>
</svg>
