<svg width="40" height="41" viewBox="0 0 40 41" fill="none" xmlns="http://www.w3.org/2000/svg">
<circle cx="20" cy="20.3545" r="20" fill="#2B7AF1"/>
<path d="M29.8063 25.4698C29.8063 25.3868 29.7232 25.3868 29.7232 25.3038C29.3911 24.6396 28.6439 23.8094 27.6477 22.8961C27.1495 22.481 26.9004 22.1489 26.7344 21.9828C26.4853 21.6508 26.4853 21.4017 26.5684 21.0696C26.6514 20.8205 26.9835 20.4054 27.5646 19.6582C27.8967 19.2431 28.0628 18.994 28.3118 18.745C29.5572 17.0845 30.1383 16.0052 29.9723 15.5071L29.8893 15.424C29.8063 15.341 29.7232 15.258 29.5572 15.258C29.3911 15.175 29.1421 15.175 28.893 15.258H25.7381C25.6551 15.258 25.6551 15.258 25.4891 15.258C25.406 15.258 25.323 15.258 25.323 15.258H25.24H25.157L25.0739 15.341C24.9909 15.424 24.9909 15.424 24.9909 15.5071C24.6588 16.4203 24.2437 17.1675 23.8286 17.9977C23.5795 18.4129 23.3305 18.828 23.0814 19.1601C22.8323 19.4922 22.6663 19.7412 22.5002 19.9073C22.3342 20.0733 22.1681 20.1563 22.0851 20.3224C22.0021 20.4054 21.8361 20.4884 21.8361 20.4054C21.753 20.4054 21.67 20.4054 21.67 20.3224C21.587 20.2394 21.504 20.1563 21.4209 20.0733C21.3379 19.9903 21.3379 19.8242 21.2549 19.6582C21.2549 19.4922 21.2549 19.3261 21.2549 19.2431C21.2549 19.1601 21.2549 18.911 21.2549 18.745C21.2549 18.4959 21.2549 18.3298 21.2549 18.2468C21.2549 17.9977 21.2549 17.6657 21.2549 17.3336C21.2549 17.0015 21.2549 16.7524 21.2549 16.5864C21.2549 16.4203 21.2549 16.1712 21.2549 16.0052C21.2549 15.7561 21.2549 15.5901 21.2549 15.5071C21.2549 15.424 21.1719 15.258 21.1719 15.175C21.0889 15.0919 21.0058 15.0089 20.9228 14.9259C20.8398 14.8429 20.6737 14.8429 20.5907 14.7599C20.1756 14.6768 19.6775 14.5938 19.0963 14.5938C17.7679 14.5938 16.8547 14.6768 16.5226 14.8429C16.3565 14.9259 16.1905 15.0089 16.1075 15.175C15.9414 15.341 15.9414 15.424 16.0245 15.424C16.4396 15.5071 16.7717 15.6731 16.9377 15.9222L17.0207 16.0882C17.1038 16.1712 17.1037 16.3373 17.1868 16.5864C17.2698 16.8354 17.2698 17.0845 17.2698 17.4166C17.2698 17.9147 17.2698 18.4129 17.2698 18.745C17.2698 19.1601 17.1868 19.4091 17.1868 19.6582C17.1868 19.9073 17.1038 20.0733 17.0207 20.1563C16.9377 20.3224 16.9377 20.4054 16.8547 20.4054C16.8547 20.4054 16.8547 20.4884 16.7717 20.4884C16.6886 20.4884 16.6056 20.5715 16.4396 20.5715C16.3565 20.5715 16.1905 20.4884 16.1075 20.4054C15.9414 20.3224 15.7754 20.1563 15.6924 19.9903C15.5263 19.8243 15.3603 19.5752 15.1942 19.2431C15.0282 18.911 14.7791 18.5789 14.6131 18.0808L14.447 17.7487C14.364 17.5826 14.198 17.2505 14.0319 16.8354C13.8659 16.4203 13.6998 16.0882 13.5338 15.6731C13.4507 15.5071 13.3677 15.424 13.2847 15.341H13.2017C13.2017 15.341 13.1186 15.258 13.0356 15.258C12.9526 15.258 12.8696 15.175 12.7866 15.175H9.79773C9.46564 15.175 9.2996 15.258 9.21657 15.341L9.13354 15.424C9.13354 15.424 9.13354 15.5071 9.13354 15.5901C9.13354 15.6731 9.13355 15.7561 9.21657 15.9222C9.63169 16.9184 10.1298 17.9147 10.628 18.911C11.1261 19.8243 11.6242 20.6545 11.9563 21.2356C12.3714 21.8168 12.7035 22.398 13.1186 22.8961C13.5338 23.3942 13.7828 23.7263 13.8658 23.8924C14.0319 24.0584 14.1149 24.1414 14.1979 24.2245L14.447 24.4735C14.6131 24.6396 14.8621 24.8887 15.1942 25.1377C15.5263 25.3868 15.9414 25.6359 16.3565 25.8849C16.7717 26.134 17.2698 26.3 17.7679 26.4661C18.3491 26.6321 18.8472 26.7152 19.3454 26.6321H20.5907C20.8398 26.6321 21.0058 26.5491 21.1719 26.3831L21.2549 26.3C21.2549 26.217 21.3379 26.217 21.3379 26.134C21.3379 26.051 21.3379 25.968 21.3379 25.8019C21.3379 25.4698 21.3379 25.2207 21.4209 24.9717C21.504 24.7226 21.504 24.5566 21.587 24.3905C21.67 24.2245 21.753 24.1414 21.8361 24.0584C21.9191 23.9754 22.0021 23.8924 22.0021 23.8924H22.0851C22.2512 23.8094 22.5002 23.8924 22.6663 24.0584C22.9154 24.2245 23.1644 24.4735 23.3305 24.7226C23.4965 24.9717 23.7456 25.2207 24.0777 25.5528C24.4098 25.8849 24.6588 26.134 24.8249 26.217L25.0739 26.3831C25.24 26.4661 25.406 26.5491 25.6551 26.6321C25.9042 26.7152 26.0702 26.7152 26.2363 26.7152L29.0591 26.6321C29.3081 26.6321 29.5572 26.5491 29.7232 26.4661C29.8893 26.3831 29.9723 26.3 29.9723 26.134C29.9723 26.051 29.9723 25.8849 29.9723 25.8019C29.8062 25.6359 29.8063 25.5528 29.8063 25.4698Z" fill="white"/>
</svg>
